<mxfile host="app.diagrams.net" modified="2020-10-07T12:02:39.467Z" agent="5.0 (Windows)" etag="0niMs-Ee5xZVmylamYjA" version="13.7.7" type="github">
  <diagram id="r4xRLytx7JsxAG-ZLAZY" name="Page-1">
    <mxGraphModel dx="910" dy="487" grid="1" gridSize="10" guides="1" tooltips="1" connect="1" arrows="1" fold="1" page="1" pageScale="1" pageWidth="1169" pageHeight="827" math="0" shadow="0">
      <root>
        <mxCell id="0" />
        <mxCell id="1" parent="0" />
        <mxCell id="RtpuuPPVlCpkko8KKNfp-1" value="Legal - Publication of Legal Instruments" style="swimlane;html=1;childLayout=stackLayout;resizeParent=1;resizeParentMax=0;horizontal=1;startSize=20;horizontalStack=0;" parent="1" vertex="1">
          <mxGeometry x="30" y="20" width="1120" height="390" as="geometry" />
        </mxCell>
        <mxCell id="RtpuuPPVlCpkko8KKNfp-2" value="Legal Counsel" style="swimlane;html=1;startSize=20;horizontal=0;" parent="RtpuuPPVlCpkko8KKNfp-1" vertex="1">
          <mxGeometry y="20" width="1120" height="250" as="geometry" />
        </mxCell>
        <mxCell id="RtpuuPPVlCpkko8KKNfp-5" value="Start" style="rounded=1;whiteSpace=wrap;html=1;" parent="RtpuuPPVlCpkko8KKNfp-2" vertex="1">
          <mxGeometry x="342" y="10" width="110" height="50" as="geometry" />
        </mxCell>
        <mxCell id="RtpuuPPVlCpkko8KKNfp-7" value="" style="edgeStyle=orthogonalEdgeStyle;rounded=0;orthogonalLoop=1;jettySize=auto;html=1;entryX=0.5;entryY=0;entryDx=0;entryDy=0;" parent="RtpuuPPVlCpkko8KKNfp-2" source="RtpuuPPVlCpkko8KKNfp-5" target="RtpuuPPVlCpkko8KKNfp-8" edge="1">
          <mxGeometry relative="1" as="geometry">
            <mxPoint x="392" y="137" as="targetPoint" />
          </mxGeometry>
        </mxCell>
        <mxCell id="RtpuuPPVlCpkko8KKNfp-8" value="Drafting of Legal Instrument" style="rounded=0;whiteSpace=wrap;html=1;" parent="RtpuuPPVlCpkko8KKNfp-2" vertex="1">
          <mxGeometry x="337" y="85" width="120" height="60" as="geometry" />
        </mxCell>
        <mxCell id="RtpuuPPVlCpkko8KKNfp-18" value="Publishing of Legal instrument" style="whiteSpace=wrap;html=1;rounded=0;" parent="RtpuuPPVlCpkko8KKNfp-2" vertex="1">
          <mxGeometry x="607" y="175" width="120" height="60" as="geometry" />
        </mxCell>
        <mxCell id="RtpuuPPVlCpkko8KKNfp-22" value="End" style="rounded=1;whiteSpace=wrap;html=1;" parent="RtpuuPPVlCpkko8KKNfp-2" vertex="1">
          <mxGeometry x="827" y="180" width="110" height="50" as="geometry" />
        </mxCell>
        <mxCell id="RtpuuPPVlCpkko8KKNfp-21" value="" style="edgeStyle=orthogonalEdgeStyle;rounded=0;orthogonalLoop=1;jettySize=auto;html=1;entryX=0;entryY=0.5;entryDx=0;entryDy=0;" parent="RtpuuPPVlCpkko8KKNfp-2" source="RtpuuPPVlCpkko8KKNfp-18" target="RtpuuPPVlCpkko8KKNfp-22" edge="1">
          <mxGeometry relative="1" as="geometry">
            <mxPoint x="827" y="205" as="targetPoint" />
          </mxGeometry>
        </mxCell>
        <mxCell id="RtpuuPPVlCpkko8KKNfp-10" value="" style="edgeStyle=orthogonalEdgeStyle;rounded=0;orthogonalLoop=1;jettySize=auto;html=1;entryX=0.5;entryY=0;entryDx=0;entryDy=0;" parent="RtpuuPPVlCpkko8KKNfp-2" source="RtpuuPPVlCpkko8KKNfp-8" target="RtpuuPPVlCpkko8KKNfp-23" edge="1">
          <mxGeometry relative="1" as="geometry">
            <mxPoint x="392" y="235" as="targetPoint" />
          </mxGeometry>
        </mxCell>
        <mxCell id="RtpuuPPVlCpkko8KKNfp-23" value="Forward for approval" style="whiteSpace=wrap;html=1;rounded=0;" parent="RtpuuPPVlCpkko8KKNfp-2" vertex="1">
          <mxGeometry x="337" y="185" width="120" height="60" as="geometry" />
        </mxCell>
        <mxCell id="RtpuuPPVlCpkko8KKNfp-19" value="" style="edgeStyle=orthogonalEdgeStyle;rounded=0;orthogonalLoop=1;jettySize=auto;html=1;entryX=0;entryY=0.5;entryDx=0;entryDy=0;" parent="RtpuuPPVlCpkko8KKNfp-1" source="RtpuuPPVlCpkko8KKNfp-13" target="RtpuuPPVlCpkko8KKNfp-18" edge="1">
          <mxGeometry relative="1" as="geometry" />
        </mxCell>
        <mxCell id="RtpuuPPVlCpkko8KKNfp-3" value="Clerk" style="swimlane;html=1;startSize=20;horizontal=0;" parent="RtpuuPPVlCpkko8KKNfp-1" vertex="1">
          <mxGeometry y="270" width="1120" height="120" as="geometry" />
        </mxCell>
        <mxCell id="RtpuuPPVlCpkko8KKNfp-13" value="Prepare forwarding letter for publication" style="whiteSpace=wrap;html=1;rounded=0;" parent="RtpuuPPVlCpkko8KKNfp-3" vertex="1">
          <mxGeometry x="514" y="35" width="120" height="60" as="geometry" />
        </mxCell>
        <mxCell id="RtpuuPPVlCpkko8KKNfp-4" value="Speaker" style="swimlane;html=1;startSize=20;horizontal=0;" parent="1" vertex="1">
          <mxGeometry x="30" y="410" width="1120" height="124" as="geometry" />
        </mxCell>
        <mxCell id="RtpuuPPVlCpkko8KKNfp-17" value="yes" style="text;html=1;strokeColor=none;fillColor=none;align=center;verticalAlign=middle;whiteSpace=wrap;rounded=0;" parent="RtpuuPPVlCpkko8KKNfp-4" vertex="1">
          <mxGeometry x="534" y="45" width="40" height="20" as="geometry" />
        </mxCell>
        <mxCell id="RtpuuPPVlCpkko8KKNfp-11" value="Approved?" style="rhombus;whiteSpace=wrap;html=1;rounded=0;" parent="RtpuuPPVlCpkko8KKNfp-4" vertex="1">
          <mxGeometry x="356" y="25" width="80" height="80" as="geometry" />
        </mxCell>
        <mxCell id="RtpuuPPVlCpkko8KKNfp-28" value="Note to legal counsel" style="shape=document;whiteSpace=wrap;html=1;boundedLbl=1;rounded=0;" parent="RtpuuPPVlCpkko8KKNfp-4" vertex="1">
          <mxGeometry x="173" y="25" width="120" height="80" as="geometry" />
        </mxCell>
        <mxCell id="RtpuuPPVlCpkko8KKNfp-29" value="" style="edgeStyle=orthogonalEdgeStyle;rounded=0;orthogonalLoop=1;jettySize=auto;html=1;" parent="RtpuuPPVlCpkko8KKNfp-4" edge="1">
          <mxGeometry relative="1" as="geometry">
            <mxPoint x="357" y="65" as="sourcePoint" />
            <mxPoint x="294" y="65" as="targetPoint" />
          </mxGeometry>
        </mxCell>
        <mxCell id="RtpuuPPVlCpkko8KKNfp-40" value="no" style="text;html=1;strokeColor=none;fillColor=none;align=center;verticalAlign=middle;whiteSpace=wrap;rounded=0;" parent="RtpuuPPVlCpkko8KKNfp-4" vertex="1">
          <mxGeometry x="312" y="46" width="40" height="20" as="geometry" />
        </mxCell>
        <mxCell id="RtpuuPPVlCpkko8KKNfp-14" value="" style="edgeStyle=orthogonalEdgeStyle;rounded=0;orthogonalLoop=1;jettySize=auto;html=1;" parent="1" target="RtpuuPPVlCpkko8KKNfp-13" edge="1">
          <mxGeometry relative="1" as="geometry">
            <mxPoint x="467" y="475" as="sourcePoint" />
          </mxGeometry>
        </mxCell>
        <mxCell id="RtpuuPPVlCpkko8KKNfp-26" value="" style="edgeStyle=orthogonalEdgeStyle;rounded=0;orthogonalLoop=1;jettySize=auto;html=1;entryX=0.5;entryY=0;entryDx=0;entryDy=0;" parent="1" source="RtpuuPPVlCpkko8KKNfp-23" edge="1">
          <mxGeometry relative="1" as="geometry">
            <mxPoint x="427" y="435" as="targetPoint" />
          </mxGeometry>
        </mxCell>
        <mxCell id="RtpuuPPVlCpkko8KKNfp-39" value="" style="endArrow=classic;html=1;exitX=0.5;exitY=0;exitDx=0;exitDy=0;entryX=0;entryY=0.5;entryDx=0;entryDy=0;" parent="1" target="RtpuuPPVlCpkko8KKNfp-8" edge="1">
          <mxGeometry width="50" height="50" relative="1" as="geometry">
            <mxPoint x="264" y="435" as="sourcePoint" />
            <mxPoint x="574" y="365" as="targetPoint" />
            <Array as="points">
              <mxPoint x="264" y="155" />
            </Array>
          </mxGeometry>
        </mxCell>
      </root>
    </mxGraphModel>
  </diagram>
</mxfile>
